<svg width="110" height="216" viewBox="0 0 110 216" fill="none" xmlns="http://www.w3.org/2000/svg">
<path d="M1.25 1.56699L0.5 1.13398V2V29.2871V29.5758L0.750003 29.7201L55.2847 61.2053L55.5387 61.3519L55.7906 61.2018L84.9753 43.8107V53.1417L55.5348 70.6852L1.25617 38.3033L0.5 37.8522V38.7327V104.851V105.14L0.750003 105.285L55.2847 136.77L55.5311 136.912L55.7792 136.773L84.9753 120.398V128.706L55.5307 146.252L1.25 114.914L0.5 114.481V115.347V181.465V181.749L0.743831 181.895L55.2785 214.429L55.5768 214.607L55.8477 214.39L67.6101 204.944L67.797 204.794V204.554V177.267V176.433L67.0611 176.827L55.5434 182.993L25.0248 165.434V158.166L55.2966 174.559L55.545 174.693L55.7884 174.55L109.254 143.065L109.5 142.919V142.634V76.5149V75.6253L108.74 76.0877L55.5348 108.464L25.0248 89.8775V82.6017L55.2966 98.9941L55.545 99.1286L55.7884 98.9853L109.254 67.5002L109.5 67.3551V67.0693V2V1.1253L108.746 1.56916L55.5322 32.9064L1.25 1.56699ZM85.2244 165.29L84.9753 165.435V165.723V193.01V193.878L85.7261 193.442L109.251 179.799L109.5 179.654V179.366V152.079V151.211L108.749 151.647L85.2244 165.29Z" fill="#F1D301" stroke="black"/>
</svg>
