<svg width="57" height="112" viewBox="0 0 57 112" fill="none" xmlns="http://www.w3.org/2000/svg">
<path d="M28.7822 16.6337L0 0V14.4158L28.7822 31.0495L44.5842 21.6238V27.1683L28.7822 36.5941L0 19.4059V54.3366L28.7822 70.9703L44.5842 62.099V67.0891L28.7822 76.5149L0 59.8812V94.8119L28.7822 112L34.9901 107.01V92.5941L28.7822 95.9208L12.4158 86.495V82.0594L28.7822 90.9307L57 74.297V39.3663L28.7822 56.5545L12.4158 46.5743V42.1386L28.7822 51.0099L57 34.3762V0L28.7822 16.6337Z" fill="url(#paint0_linear_1209_177)"/>
<path d="M57 79.2871L44.5842 86.495V100.911L57 93.703V79.2871Z" fill="url(#paint1_linear_1209_177)"/>
<defs>
<linearGradient id="paint0_linear_1209_177" x1="28.5" y1="0" x2="28.5" y2="146.5" gradientUnits="userSpaceOnUse">
<stop stop-color="#F9D634"/>
<stop offset="1" stop-color="#30220D"/>
</linearGradient>
<linearGradient id="paint1_linear_1209_177" x1="28.5" y1="0" x2="28.5" y2="146.5" gradientUnits="userSpaceOnUse">
<stop stop-color="#F9D634"/>
<stop offset="1" stop-color="#30220D"/>
</linearGradient>
</defs>
</svg>
